<svg width="197" height="219" viewBox="0 0 197 219" fill="none" xmlns="http://www.w3.org/2000/svg">
<path d="M158.904 11.9792C152.04 18.5001 143.975 24.6778 140.886 25.879C135.909 28.1099 135.566 28.6247 135.566 37.3764C135.566 42.5245 135.909 46.643 136.424 46.643C139.17 46.643 150.667 40.8085 155.644 37.0332L161.307 32.7431V43.0393V53.5071H178.467H195.627V32.9147C195.627 10.778 194.083 5.11509 187.562 2.19785C177.78 -2.26382 172.289 -0.376194 158.904 11.9792Z" fill="url(#paint0_linear_2926_1459)"/>
<path d="M37.9241 82.8512C17.8466 127.468 1.02955 164.877 0.514738 166.25C-0.171673 168.138 1.71596 168.481 10.4677 168.138L21.2787 167.623L30.3736 147.889L39.297 128.154L74.1323 127.639L108.968 127.296L118.234 147.889L127.501 168.481H139.17H150.839L141.572 148.232C136.596 137.249 119.264 99.8398 103.305 65.0045L74.3039 2.02626L37.9241 82.8512ZM87.3457 78.9043C94.0382 94.3486 99.5295 107.562 99.5295 108.592C99.5295 110.308 51.1376 110.822 49.4215 109.106C48.9067 108.592 53.3684 96.9226 59.5461 83.0228C65.7238 69.1229 71.3867 55.9095 72.2447 53.6787C73.1027 51.4479 74.1323 49.9034 74.4755 50.2466C74.8187 50.5898 80.4816 63.4601 87.3457 78.9043Z" fill="url(#paint1_linear_2926_1459)"/>
<path fill-rule="evenodd" clip-rule="evenodd" d="M163.194 126.267L162.679 92.4609L162.165 58.6552H178.639H195.112L196.142 90.7449L197 123.006L189.278 143.599C184.988 154.924 180.869 164.706 180.355 165.564C179.668 166.25 175.55 157.67 171.26 146.516L163.194 126.267ZM172.752 133.302L180.183 151.321L187.614 133.302H172.752Z" fill="url(#paint2_linear_2926_1459)"/>
<path d="M10.3785 199.601H1.44146V201.269H5.02453V214.221H6.79547V201.269H10.3785V199.601ZM56.2333 208.208V199.601H54.4624V208.208C54.4624 211.503 52.8974 212.759 50.5498 212.759C48.2023 212.759 46.6373 211.503 46.6373 208.208V199.601H44.8869V208.208C44.8869 212.492 47.1109 214.427 50.5498 214.427C54.0093 214.427 56.2333 212.492 56.2333 208.208ZM99.8579 199.601H90.9208V201.269H94.5039V214.221H96.2748V201.269H99.8579V199.601ZM140.579 214.427C144.759 214.427 147.971 211.05 147.971 206.911C147.971 202.772 144.759 199.395 140.579 199.395C136.419 199.395 133.207 202.772 133.207 206.911C133.207 211.05 136.419 214.427 140.579 214.427ZM140.579 212.759C137.407 212.759 134.978 210.103 134.978 206.911C134.978 203.719 137.407 201.063 140.579 201.063C143.771 201.063 146.2 203.719 146.2 206.911C146.2 210.103 143.771 212.759 140.579 212.759ZM191.009 214.221H193.027L189.732 209.073C191.524 208.455 192.924 206.829 192.924 204.461C192.924 201.433 190.638 199.601 188.147 199.601H182.937V214.221H184.687V209.32H187.9L191.009 214.221ZM184.687 201.269H188.147C189.753 201.269 191.174 202.463 191.174 204.461C191.174 206.458 189.753 207.652 188.147 207.652H184.687V201.269Z" fill="url(#paint3_linear_2926_1459)"/>
<defs>
<linearGradient id="paint0_linear_2926_1459" x1="135.566" y1="53.5071" x2="188.718" y2="-6.15517" gradientUnits="userSpaceOnUse">
<stop offset="0.229167" stop-color="#5AC8FA"/>
<stop offset="1" stop-color="#4081BF"/>
</linearGradient>
<linearGradient id="paint1_linear_2926_1459" x1="0.38623" y1="168.481" x2="165.994" y2="18.7937" gradientUnits="userSpaceOnUse">
<stop offset="0.229167" stop-color="#5AC8FA"/>
<stop offset="1" stop-color="#4081BF"/>
</linearGradient>
<linearGradient id="paint2_linear_2926_1459" x1="162.165" y1="58.6552" x2="225.153" y2="79.1719" gradientUnits="userSpaceOnUse">
<stop offset="0.229167" stop-color="#5AC8FA"/>
<stop offset="1" stop-color="#4081BF"/>
</linearGradient>
<linearGradient id="paint3_linear_2926_1459" x1="0" y1="194.221" x2="5.81306" y2="241.556" gradientUnits="userSpaceOnUse">
<stop offset="0.229167" stop-color="#5AC8FA"/>
<stop offset="1" stop-color="#4081BF"/>
</linearGradient>
</defs>
</svg>
